<?xml version="1.0" encoding="UTF-8" standalone="no"?>
<svg
   width="32"
   height="32"
   xml:space="preserve"
   version="1.1"
   id="svg1"
   sodipodi:docname="github.svg"
   inkscape:version="1.3-dev (d4b2c6b732, 2022-10-10, custom)"
   xmlns:inkscape="http://www.inkscape.org/namespaces/inkscape"
   xmlns:sodipodi="http://sodipodi.sourceforge.net/DTD/sodipodi-0.dtd"
   xmlns="http://www.w3.org/2000/svg"
   xmlns:svg="http://www.w3.org/2000/svg"><defs
     id="defs1" /><sodipodi:namedview
     id="namedview1"
     pagecolor="#505050"
     bordercolor="#eeeeee"
     borderopacity="1"
     inkscape:showpageshadow="0"
     inkscape:pageopacity="0"
     inkscape:pagecheckerboard="0"
     inkscape:deskcolor="#505050"
     showgrid="false"
     showguides="true"
     inkscape:lockguides="false"
     inkscape:zoom="16"
     inkscape:cx="22.3"
     inkscape:cy="23.2"
     inkscape:window-width="1920"
     inkscape:window-height="985"
     inkscape:window-x="0"
     inkscape:window-y="0"
     inkscape:window-maximized="1"
     inkscape:current-layer="svg1"><sodipodi:guide
       position="7.71,26.3"
       orientation="0,1"
       id="guide1"
       inkscape:locked="false"
       inkscape:label=""
       inkscape:color="rgb(0,134,229)" /><sodipodi:guide
       position="20.4,0.6"
       orientation="1,0"
       id="guide17"
       inkscape:locked="false" /><sodipodi:guide
       position="20.4,0.6"
       orientation="0,-1"
       id="guide18"
       inkscape:locked="false" /><sodipodi:guide
       position="27.6,2.59"
       orientation="0,-1"
       id="guide19"
       inkscape:locked="false" /><sodipodi:guide
       position="27.3,3.34"
       orientation="1,0"
       id="guide20"
       inkscape:locked="false" /><sodipodi:guide
       position="11.4,0.7"
       orientation="1,0"
       id="guide21"
       inkscape:locked="false" /><sodipodi:guide
       position="11.7,0.305"
       orientation="-1,0"
       id="guide22"
       inkscape:locked="false" /><sodipodi:guide
       position="11.1,0"
       orientation="-1,0"
       id="guide23"
       inkscape:locked="false" /><sodipodi:guide
       position="4.65,2.11"
       orientation="1,0"
       id="guide24"
       inkscape:locked="false" /></sodipodi:namedview><path
     id="path17"
     style="fill:#000000;fill-opacity:1;stroke:none;stroke-width:1.002;stroke-linecap:round;stroke-linejoin:round;stroke-dasharray:none;paint-order:stroke fill markers"
     d="M 16,0 C 7.16,0 0,7.16 0,16 0.011,23.1 4.6,29.6 11.4,31.3 14.2,32 12.5,27.7 12.5,27.7 7.08,28.4 7.17,25.4 5.98,23.9 5.61,23.4 4.33,22.8 4.85,22.5 c 0.12,-0.1 0.71,-0.3 1.75,0.2 1.35,0.7 1.97,3.7 5.9,2.6 0.1,-0.8 0,-1.6 0.4,-2.1 C 5.41,22.3 3.29,14.9 7.46,10.4 6.79,9.1 6.53,7.4 7.71,5.73 c 2.08,-0 2.79,0.17 4.49,2.11 2.2,-1.11 5.5,-1.1 7.8,0 1.6,-1.89 2.3,-2.12 4.3,-2.11 1.1,1.26 1.1,3.54 0.2,4.67 2.7,2.4 4.3,10.9 -5.4,12.8 1,2.7 -1.2,8.9 1.3,8.2 C 27.3,29.4 32,23.1 32,16 32,7.16 24.8,0 16,0 Z"
     sodipodi:nodetypes="ssscssscccccccccsss" /></svg>
