<svg role="img" width="24" height="24" viewBox="0 0 24 24" xmlns="http://www.w3.org/2000/svg">
    <path d="m 4.23,1.15 c 0,0 -3.417,1.52 -3.417,6.73 0,1.19 -0.02,2.62 0.02,4.12 0.124,5.1 0.927,10.1 5.637,11.4 2.17,0.5 4.03,0.7 5.53,0.6 2.7,-0.2 4.3,-1 4.3,-1 l -0.1,-2 c 0,0 -2,0.6 -4.2,0.6 -2.13,-0.1 -4.41,-0.3 -4.76,-2.9 0,-0.3 0,-0.5 0,-0.8 0,0 2.12,0.6 4.86,0.7 1.7,0.1 3.2,-0.1 4.8,-0.3 3,-0.4 5.6,-2.2 5.9,-3.9 0.5,-2.7 0.5,-6.52 0.5,-6.52 C 23.2,2.67 19.8,1.15 19.8,1.15 18.1,0.357 15.1,0.025 12,0.025 8.9,0.025 5.95,0.357 4.23,1.15 Z m 4.26,2.92 c 1.28,0 2.21,0.49 2.91,1.47 L 12,6.58 12.6,5.54 c 0.7,-0.98 1.6,-1.47 2.9,-1.47 1.1,0 2,0.39 2.7,1.14 0.6,0.76 1,1.78 1,3.07 V 14.6 H 16.7 V 8.47 C 16.7,7.18 16.1,6.52 15,6.52 13.8,6.52 13.2,7.3 13.2,8.84 V 12.2 H 10.8 V 8.84 C 10.8,7.3 10.2,6.52 8.96,6.52 7.87,6.52 7.33,7.18 7.33,8.47 V 14.6 H 4.83 V 8.28 C 4.83,6.99 5.16,5.97 5.82,5.21 6.5,4.46 7.39,4.07 8.49,4.07 Z" />
</svg>
