<?xml version="1.0" encoding="UTF-8" standalone="no"?>
<svg
  width="32"
  height="32"
  xml:space="preserve"
  version="1.1"
  id="svg1"
  sodipodi:docname="merge.svg"
  inkscape:version="1.3-dev (d00e825bf3, 2022-10-14, custom)"
  xmlns:inkscape="http://www.inkscape.org/namespaces/inkscape"
  xmlns:sodipodi="http://sodipodi.sourceforge.net/DTD/sodipodi-0.dtd"
  xmlns="http://www.w3.org/2000/svg"
  xmlns:svg="http://www.w3.org/2000/svg"><defs
     id="defs1" /><sodipodi:namedview
     id="namedview1"
     pagecolor="#505050"
     bordercolor="#eeeeee"
     borderopacity="1"
     inkscape:showpageshadow="0"
     inkscape:pageopacity="0"
     inkscape:pagecheckerboard="0"
     inkscape:deskcolor="#505050"
     showgrid="false"
     showguides="true"
     inkscape:lockguides="false"
     inkscape:zoom="12.2"
     inkscape:cx="6.19"
     inkscape:cy="16.6"
     inkscape:window-width="1920"
     inkscape:window-height="985"
     inkscape:window-x="0"
     inkscape:window-y="0"
     inkscape:window-maximized="1"
     inkscape:current-layer="svg1"><sodipodi:guide
       position="4,28"
       orientation="0,1"
       id="guide1"
       inkscape:locked="false"
       inkscape:label=""
       inkscape:color="rgb(0,134,229)" /><sodipodi:guide
       position="28,4"
       orientation="0,1"
       id="guide2"
       inkscape:locked="false"
       inkscape:label=""
       inkscape:color="rgb(0,134,229)" /><sodipodi:guide
       position="4,28"
       orientation="-1,0"
       id="guide3"
       inkscape:locked="false"
       inkscape:label=""
       inkscape:color="rgb(0,134,229)" /><sodipodi:guide
       position="28,4"
       orientation="-1,0"
       id="guide4"
       inkscape:locked="false"
       inkscape:label=""
       inkscape:color="rgb(0,134,229)" /><sodipodi:guide
       position="8,24"
       orientation="-1,0"
       id="guide5"
       inkscape:locked="false"
       inkscape:label=""
       inkscape:color="rgb(0,134,229)" /><sodipodi:guide
       position="8,24"
       orientation="0,1"
       id="guide6"
       inkscape:locked="false"
       inkscape:label=""
       inkscape:color="rgb(0,134,229)" /><sodipodi:guide
       position="24,8"
       orientation="0,1"
       id="guide7"
       inkscape:locked="false"
       inkscape:label=""
       inkscape:color="rgb(0,134,229)" /><sodipodi:guide
       position="24,8"
       orientation="-1,0"
       id="guide8"
       inkscape:locked="false"
       inkscape:label=""
       inkscape:color="rgb(0,134,229)" /><sodipodi:guide
       position="24,24"
       orientation="0.707,-0.707"
       id="guide9"
       inkscape:locked="false" /><sodipodi:guide
       position="8,24"
       orientation="0.707,0.707"
       id="guide10"
       inkscape:locked="false"
       inkscape:label=""
       inkscape:color="rgb(0,134,229)" /></sodipodi:namedview><path
     id="path1"
     fill="#fff"
     style="fill:#000000;stroke-width:1.002;stroke-linecap:round;stroke-linejoin:round;paint-order:stroke fill markers"
     d="m 10.9,4.01 a 3.91,3.91 0 0 0 -3.82,3.9 3.91,3.91 0 0 0 2.87,3.79 v 8.6 a 3.91,3.91 0 0 0 -2.87,3.8 3.91,3.91 0 0 0 3.82,3.9 3.91,3.91 0 0 0 3.9,-3.9 3.91,3.91 0 0 0 -2.9,-3.8 v -5.4 c 0.3,0.1 0.5,0.3 0.8,0.4 1.2,0.6 2.5,0.8 3.7,1 1.1,0.2 2.2,0.4 2.7,0.7 0.6,0.4 0.9,0.7 0.9,1.8 v 1.4 c -1.7,0.4 -2.9,1.9 -2.9,3.8 0,2.2 1.7,3.9 3.9,3.9 2.2,0 3.9,-1.7 3.9,-3.9 0,-1.9 -1.2,-3.4 -2.9,-3.8 v -1.4 c 0,-1.6 -0.8,-2.9 -1.8,-3.5 -1.1,-0.6 -2.3,-0.8 -3.5,-1 -1.2,-0.2 -2.3,-0.4 -3.1,-0.8 -0.9,-0.4 -1.4,-0.9 -1.7,-1.8 A 3.91,3.91 0 0 0 14.8,7.9 3.91,3.91 0 0 0 10.9,4.01 Z m 0,1.9 a 2.02,2.02 0 0 1 2,2 2.02,2.02 0 0 1 -2,2 2.02,2.02 0 0 1 -1.92,-2 2.02,2.02 0 0 1 1.92,-2 z M 21,22 c 1.1,0 2,0.9 2,2 0,1.1 -0.9,2 -2,2 -1.1,0 -2,-0.9 -2,-2 0,-1.1 0.9,-2 2,-2 z m -10.1,0.1 a 2.02,2.02 0 0 1 2,2 2.02,2.02 0 0 1 -2,2 2.02,2.02 0 0 1 -1.92,-2 2.02,2.02 0 0 1 1.92,-2 z" /></svg>